{"title":"Batti Gul Meter Chalu 2018 Hindi 720p Pre-DVDRip x264 [MW]","magnet":"magnet:?xt=urn:btih:619050996a5a953e20e368cd674544d6336edfdc&dn=Batti+Gul+Meter+Chalu+2018+Hindi+720p+Pre-DVDRip+x264+%5BMW%5D&tr=udp%3A%2F%2Ftracker.leechers-paradise.org%3A6969&tr=udp%3A%2F%2Fzer0day.ch%3A1337&tr=udp%3A%2F%2Fopen.demonii.com%3A1337&tr=udp%3A%2F%2Ftracker.coppersurfer.tk%3A6969&tr=udp%3A%2F%2Fexodus.desync.com%3A6969","uploader":"MFreaky","categoryP":"video","categoryS":"movies","size":"1284306702","seeders":"52","leechers":"130","description":" <a href=\"https://pichub.site/image/EuUbk\" rel=\"nofollow\" target=\"_NEW\">https://pichub.site/image/EuUbk</a> <a href=\"\nhttps://pichub.site/image/Eu0Uv\" rel=\"nofollow\" target=\"_NEW\">\nhttps://pichub.site/image/Eu0Uv</a> <a href=\"\nhttps://pichub.site/image/EuL9d\" rel=\"nofollow\" target=\"_NEW\">\nhttps://pichub.site/image/EuL9d</a> <a href=\"\nhttps://pichub.site/image/Eu2XR\" rel=\"nofollow\" target=\"_NEW\">\nhttps://pichub.site/image/Eu2XR</a> <a href=\"\nhttps://pichub.site/image/EulJs\" rel=\"nofollow\" target=\"_NEW\">\nhttps://pichub.site/image/EulJs</a>\r\n\r\nIMDB <a href=\"\nhttps://www.imdb.com/title/tt7720922/\" rel=\"nofollow\" target=\"_NEW\">\nhttps://www.imdb.com/title/tt7720922/</a>\r\n\r\nVideo\r\nFormat                                   : AVC\r\nFormat/Info                              : Advanced Video Codec\r\nFormat profile                           : High@L4.1\r\nFormat settings                          : CABAC / 4 Ref Frames\r\nFormat settings, CABAC                   : Yes\r\nFormat settings, RefFrames               : 4 frames\r\nCodec ID                                 : V_MPEG4/ISO/AVC\r\nDuration                                 : 2 h 19 min\r\nBit rate                                 : 1 100 kb/s\r\nWidth                                    : 1 280 pixels\r\nHeight                                   : 544 pixels\r\nDisplay aspect ratio                     : 2.35:1\r\nFrame rate mode                          : Constant\r\nFrame rate                               : 25.000 FPS\r\nColor space                              : YUV\r\nChroma subsampling                       : 4:2:0\r\nBit depth                                : 8 bits\r\nScan type                                : Progressive\r\nBits/(Pixel*Frame)                       : 0.063\r\nStream size                              : 1.07 GiB (89%)\r\nWriting library                          : x264 core 155 r2901 7d0ff22\r\n\r\nAudio\r\nFormat                                   : AAC\r\nFormat/Info                              : Advanced Audio Codec\r\nFormat profile                           : LC\r\nCodec ID                                 : A_AAC-2\r\nDuration                                 : 2 h 19 min\r\nBit rate                                 : 129 kb/s\r\nChannel(s)                               : 2 channels\r\nChannel positions                        : Front: L R\r\nSampling rate                            : 48.0 kHz\r\nFrame rate                               : 46.875 FPS (1024 SPF)\r\nCompression mode                         : Lossy\r\nStream size                              : 128 MiB (10%)\r\nLanguage                                 : Hindi","last_updated":"2018-09-23T12:12:12.972Z","parsed":{"xt":"urn:btih:619050996a5a953e20e368cd674544d6336edfdc","dn":"Batti Gul Meter Chalu 2018 Hindi 720p Pre-DVDRip x264 [MW]","tr":["udp://exodus.desync.com:6969","udp://open.demonii.com:1337","udp://tracker.coppersurfer.tk:6969","udp://tracker.leechers-paradise.org:6969","udp://zer0day.ch:1337"],"infoHash":"619050996a5a953e20e368cd674544d6336edfdc","infoHashBuffer":{"type":"Buffer","data":[97,144,80,153,106,90,149,62,32,227,104,205,103,69,68,214,51,110,223,220]},"name":"Batti Gul Meter Chalu 2018 Hindi 720p Pre-DVDRip x264 [MW]","announce":["udp://exodus.desync.com:6969","udp://open.demonii.com:1337","udp://tracker.coppersurfer.tk:6969","udp://tracker.leechers-paradise.org:6969","udp://zer0day.ch:1337"],"urlList":[]}}